<svg width="151" height="45" viewBox="0 0 151 45" fill="none" xmlns="http://www.w3.org/2000/svg">
<path d="M1 34.7V17.6H22.35V16.6H1V1H23.7V0H0V35.7H23.9V34.7H1Z" fill="black"/>
<path d="M42.6555 10L33.8055 21.65L25.1555 10H23.8555L33.2055 22.4L22.9555 35.7H24.1555L33.8055 23.15L43.5055 35.7H44.7555L34.4555 22.4L43.8555 10H42.6555Z" fill="black"/>
<path d="M47.2668 44.5V28.5H47.3668C47.9668 30.8333 49.1501 32.7167 50.9168 34.15C52.6835 35.55 54.9335 36.25 57.6668 36.25C59.4335 36.25 61.0001 35.9 62.3668 35.2C63.7335 34.4667 64.8668 33.4833 65.7668 32.25C66.7001 31.0167 67.4001 29.5833 67.8668 27.95C68.3668 26.3167 68.6168 24.6 68.6168 22.8C68.6168 20.8667 68.3668 19.0833 67.8668 17.45C67.3668 15.8167 66.6335 14.4 65.6668 13.2C64.7335 12 63.5835 11.0667 62.2168 10.4C60.8835 9.73333 59.3668 9.4 57.6668 9.4C56.3668 9.4 55.1501 9.6 54.0168 10C52.9168 10.3667 51.9335 10.9 51.0668 11.6C50.2001 12.3 49.4501 13.1333 48.8168 14.1C48.1835 15.0333 47.7001 16.0667 47.3668 17.2H47.2668V10H46.2668V44.5H47.2668ZM57.6668 35.3C54.5335 35.3 52.0168 34.2333 50.1168 32.1C48.2168 29.9333 47.2668 26.8333 47.2668 22.8C47.2668 21.1333 47.5001 19.55 47.9668 18.05C48.4335 16.55 49.1001 15.2333 49.9668 14.1C50.8668 12.9667 51.9668 12.0667 53.2668 11.4C54.5668 10.7333 56.0335 10.4 57.6668 10.4C59.3335 10.4 60.7835 10.7333 62.0168 11.4C63.2835 12.0667 64.3168 12.9833 65.1168 14.15C65.9501 15.2833 66.5668 16.6 66.9668 18.1C67.4001 19.5667 67.6168 21.1333 67.6168 22.8C67.6168 24.3 67.4168 25.8 67.0168 27.3C66.6501 28.7667 66.0668 30.1 65.2668 31.3C64.4668 32.4667 63.4335 33.4333 62.1668 34.2C60.9335 34.9333 59.4335 35.3 57.6668 35.3Z" fill="black"/>
<path d="M73.6223 35.7V21.15C73.6223 19.75 73.8223 18.3833 74.2223 17.05C74.6223 15.7167 75.2389 14.55 76.0723 13.55C76.9056 12.5167 77.9556 11.7167 79.2223 11.15C80.5223 10.55 82.0556 10.3 83.8223 10.4V9.4C82.2889 9.36667 80.9389 9.53334 79.7723 9.9C78.6389 10.2667 77.6556 10.7667 76.8223 11.4C75.9889 12.0333 75.3223 12.7833 74.8223 13.65C74.3223 14.4833 73.9556 15.3833 73.7223 16.35H73.6223V10H72.6223V35.7H73.6223Z" fill="black"/>
<path d="M84.5617 23.05H106.062C106.128 21.2833 105.945 19.5833 105.512 17.95C105.112 16.3167 104.445 14.8667 103.512 13.6C102.612 12.3333 101.428 11.3167 99.9617 10.55C98.5284 9.78333 96.8117 9.4 94.8117 9.4C93.3784 9.4 91.9784 9.7 90.6117 10.3C89.2451 10.9 88.0451 11.7833 87.0117 12.95C85.9784 14.0833 85.1451 15.4833 84.5117 17.15C83.8784 18.8167 83.5617 20.7167 83.5617 22.85C83.5617 24.75 83.7784 26.5333 84.2117 28.2C84.6451 29.8333 85.3117 31.2667 86.2117 32.5C87.1117 33.7 88.2617 34.6333 89.6617 35.3C91.0951 35.9667 92.8117 36.2833 94.8117 36.25C97.7451 36.25 100.212 35.4333 102.212 33.8C104.212 32.1333 105.395 29.8 105.762 26.8H104.762C104.328 29.6333 103.212 31.7667 101.412 33.2C99.6451 34.6 97.4117 35.3 94.7117 35.3C92.8784 35.3 91.3284 34.9833 90.0617 34.35C88.7951 33.7167 87.7617 32.85 86.9617 31.75C86.1617 30.65 85.5617 29.3667 85.1617 27.9C84.7951 26.4 84.5951 24.7833 84.5617 23.05ZM105.062 22.05H84.5617C84.6617 20.25 84.9951 18.6333 85.5617 17.2C86.1284 15.7667 86.8617 14.55 87.7617 13.55C88.6951 12.5167 89.7617 11.7333 90.9617 11.2C92.1951 10.6667 93.5117 10.4 94.9117 10.4C96.5784 10.4 98.0451 10.7167 99.3117 11.35C100.578 11.95 101.628 12.7833 102.462 13.85C103.328 14.9167 103.978 16.1667 104.412 17.6C104.845 19 105.062 20.4833 105.062 22.05Z" fill="black"/>
<path d="M126.312 17.6H127.312C127.312 14.7333 126.478 12.65 124.812 11.35C123.145 10.05 120.878 9.4 118.012 9.4C116.412 9.4 115.062 9.6 113.962 10C112.862 10.4 111.962 10.9167 111.262 11.55C110.562 12.1833 110.062 12.8833 109.762 13.65C109.462 14.4167 109.312 15.15 109.312 15.85C109.312 17.25 109.562 18.3667 110.062 19.2C110.562 20.0333 111.345 20.6833 112.412 21.15C113.145 21.4833 113.978 21.7833 114.912 22.05C115.845 22.3167 116.928 22.6 118.162 22.9C119.262 23.1667 120.345 23.4333 121.412 23.7C122.478 23.9667 123.412 24.3333 124.212 24.8C125.045 25.2333 125.712 25.8 126.212 26.5C126.745 27.2 127.012 28.1167 127.012 29.25C127.012 30.35 126.745 31.2833 126.212 32.05C125.712 32.8167 125.062 33.45 124.262 33.95C123.462 34.4167 122.562 34.7667 121.562 35C120.595 35.2 119.645 35.3 118.712 35.3C115.678 35.3 113.345 34.6333 111.712 33.3C110.112 31.9333 109.312 29.8 109.312 26.9H108.312C108.312 30.1333 109.178 32.5 110.912 34C112.678 35.5 115.278 36.25 118.712 36.25C119.812 36.25 120.912 36.1167 122.012 35.85C123.145 35.6167 124.145 35.2167 125.012 34.65C125.912 34.0833 126.628 33.35 127.162 32.45C127.728 31.55 128.012 30.45 128.012 29.15C128.012 27.9167 127.762 26.9167 127.262 26.15C126.795 25.3833 126.162 24.75 125.362 24.25C124.595 23.75 123.712 23.3667 122.712 23.1C121.745 22.8 120.762 22.5167 119.762 22.25C118.362 21.8833 117.128 21.5667 116.062 21.3C115.028 21.0333 114.062 20.7167 113.162 20.35C112.295 19.9833 111.595 19.4667 111.062 18.8C110.562 18.1 110.312 17.1167 110.312 15.85C110.312 15.6167 110.378 15.2 110.512 14.6C110.645 14 110.962 13.4 111.462 12.8C111.962 12.1667 112.728 11.6167 113.762 11.15C114.795 10.65 116.212 10.4 118.012 10.4C119.245 10.4 120.362 10.5333 121.362 10.8C122.395 11.0667 123.278 11.5 124.012 12.1C124.745 12.6667 125.312 13.4 125.712 14.3C126.112 15.2 126.312 16.3 126.312 17.6Z" fill="black"/>
<path d="M148.956 17.6H149.956C149.956 14.7333 149.123 12.65 147.456 11.35C145.79 10.05 143.523 9.4 140.656 9.4C139.056 9.4 137.706 9.6 136.606 10C135.506 10.4 134.606 10.9167 133.906 11.55C133.206 12.1833 132.706 12.8833 132.406 13.65C132.106 14.4167 131.956 15.15 131.956 15.85C131.956 17.25 132.206 18.3667 132.706 19.2C133.206 20.0333 133.99 20.6833 135.056 21.15C135.79 21.4833 136.623 21.7833 137.556 22.05C138.49 22.3167 139.573 22.6 140.806 22.9C141.906 23.1667 142.99 23.4333 144.056 23.7C145.123 23.9667 146.056 24.3333 146.856 24.8C147.69 25.2333 148.356 25.8 148.856 26.5C149.39 27.2 149.656 28.1167 149.656 29.25C149.656 30.35 149.39 31.2833 148.856 32.05C148.356 32.8167 147.706 33.45 146.906 33.95C146.106 34.4167 145.206 34.7667 144.206 35C143.24 35.2 142.29 35.3 141.356 35.3C138.323 35.3 135.99 34.6333 134.356 33.3C132.756 31.9333 131.956 29.8 131.956 26.9H130.956C130.956 30.1333 131.823 32.5 133.556 34C135.323 35.5 137.923 36.25 141.356 36.25C142.456 36.25 143.556 36.1167 144.656 35.85C145.79 35.6167 146.79 35.2167 147.656 34.65C148.556 34.0833 149.273 33.35 149.806 32.45C150.373 31.55 150.656 30.45 150.656 29.15C150.656 27.9167 150.406 26.9167 149.906 26.15C149.44 25.3833 148.806 24.75 148.006 24.25C147.24 23.75 146.356 23.3667 145.356 23.1C144.39 22.8 143.406 22.5167 142.406 22.25C141.006 21.8833 139.773 21.5667 138.706 21.3C137.673 21.0333 136.706 20.7167 135.806 20.35C134.94 19.9833 134.24 19.4667 133.706 18.8C133.206 18.1 132.956 17.1167 132.956 15.85C132.956 15.6167 133.023 15.2 133.156 14.6C133.29 14 133.606 13.4 134.106 12.8C134.606 12.1667 135.373 11.6167 136.406 11.15C137.44 10.65 138.856 10.4 140.656 10.4C141.89 10.4 143.006 10.5333 144.006 10.8C145.04 11.0667 145.923 11.5 146.656 12.1C147.39 12.6667 147.956 13.4 148.356 14.3C148.756 15.2 148.956 16.3 148.956 17.6Z" fill="black"/>
</svg>