<svg width="46" height="33" viewBox="0 0 46 33" fill="none" xmlns="http://www.w3.org/2000/svg">
<path d="M45.998 27.184C45.998 27.184 39.032 26.152 35.351 25.856C31.816 25.572 27.627 25.408 23.133 25.408C18.639 25.408 14.45 25.572 10.916 25.856C7.234 26.156 0.268997 27.588 0.268997 27.588V29.388C0.268997 30.988 10.506 32.288 23.133 32.288C35.76 32.288 45.997 30.988 45.997 29.388L45.998 27.184Z" fill="#F0D50C"/>
<path d="M16.103 3.30902C12.0284 4.76082 8.50285 7.43764 6.00977 10.9724C3.51668 14.5071 2.17823 18.7265 2.17799 23.052V26.02C5.15739 25.3082 8.19514 24.8677 11.254 24.704C11.2333 24.1347 11.2227 23.561 11.222 22.983C11.225 15.195 13.105 8.18702 16.103 3.30902Z" fill="#F0D50C"/>
<path d="M44.087 23.052C44.0942 18.1887 42.4024 13.4756 39.304 9.72699C40.6472 14.0171 41.3165 18.4896 41.288 22.985C41.288 23.803 41.267 24.6117 41.225 25.411C42.1785 25.5578 43.123 25.7581 44.054 26.011L44.087 23.052Z" fill="#FFF04D"/>
<path d="M44.087 23.052C44.0942 18.1887 42.4024 13.4756 39.304 9.72699C40.6472 14.0171 41.3165 18.4896 41.288 22.985C41.288 23.803 41.267 24.6117 41.225 25.411C42.1785 25.5578 43.123 25.7581 44.054 26.011L44.087 23.052Z" fill="#FFEA00"/>
<path d="M39.304 9.72604C36.5635 6.40404 32.8668 4.00615 28.7162 2.85809C24.5655 1.71004 20.1621 1.86746 16.104 3.30902C13.104 8.18702 11.225 15.195 11.225 22.984C11.225 23.562 11.2357 24.1357 11.257 24.705C14.377 24.464 17.989 24.315 21.857 24.288C21.857 24.288 22.736 24.288 23.135 24.288C29.1852 24.2154 35.2325 24.5921 41.227 25.415C41.2676 24.615 41.2887 23.8064 41.29 22.989C41.3184 18.4919 40.6484 14.0176 39.304 9.72604V9.72604Z" fill="#FFF04D"/>
<path d="M31.562 11.112L30.234 2.81202C30.1878 2.51284 30.0576 2.23294 29.8587 2.00477C29.6597 1.7766 29.4001 1.60953 29.11 1.52302C25.2406 0.387509 21.1264 0.387509 17.257 1.52302C16.9671 1.60969 16.7077 1.77683 16.5089 2.00498C16.3101 2.23314 16.1801 2.51296 16.134 2.81202L14.805 11.112" fill="#FFF04D"/>
<path d="M23.135 24.112C22.735 24.112 22.338 24.112 21.944 24.112H21.9H21.856C9.82299 24.196 0.26999 25.46 0.26999 27.007V29.249C0.250495 29.3804 0.278517 29.5144 0.349 29.627C0.960133 29.168 1.66259 28.8455 2.409 28.681C4.30995 28.2185 6.24205 27.895 8.18999 27.713C8.73686 27.653 9.29024 27.7103 9.81323 27.881C10.3362 28.0517 10.8168 28.332 11.223 28.703C12.7275 30.0804 14.6933 30.8442 16.733 30.844H29.533C31.5727 30.8441 33.5385 30.0803 35.043 28.703C35.4491 28.3315 35.9298 28.051 36.453 27.8801C36.9762 27.7092 37.5299 27.6519 38.077 27.712C40.0246 27.8939 41.9564 28.2175 43.857 28.68C44.5639 28.816 45.2315 29.1081 45.811 29.535C45.844 29.568 45.882 29.597 45.911 29.627C45.982 29.5139 46.0103 29.3792 45.991 29.247V27.005C45.998 25.41 35.761 24.112 23.135 24.112Z" fill="#FFF04D"/>
<path d="M27.951 17.454L23.129 20.422V24.277L27.951 17.454Z" fill="#6E6F70"/>
<path d="M23.134 24.277V20.422L18.312 17.454L23.134 24.277Z" fill="#0A0A0A"/>
<path d="M18.312 15.693L23.134 18.481V7.89404L18.312 15.693Z" fill="#0A0A0A"/>
<path d="M27.951 15.693L23.129 7.89301V12.904V18.48L27.951 15.692V15.693Z" fill="#6E6F70"/>
</svg>